PathFileType        4      (X/Y/Z)      C:\Users\pc\Desktop\IMUTRC\Sujet_08\Sujet_08_velo_100.trc         
DataRate	CameraRate	NumFrames	NumMarkers	Units	OrigDataRate	OrigDataStartFrame	OrigNumFrames
60.0	60.0	4	64	mm	60.0	700	932
Frame#	Time	pHipOrigin			pRightASI			pLeftASI			pRightCSI			pLeftCSI			pRightIschialTub			pLeftIschialTub			pSacrum			pL5SpinalProcess			pL3SpinalProcess			pT12SpinalProcess			pIJ			pT4SpinalProcess			pT8SpinalProcess			pPX			pC7SpinalProcess			pTopOfHead			pRightAuricularis			pLeftAuricularis			pBackOfHead			pRightAcromion			pLeftAcromion			pRightArmLatEpicondyle			pRightArmMedEpicondyle			pLeftArmLatEpicondyle			pLeftArmMedEpicondyle			pRightUlnarStyloid			pRightRadialStyloid			pRightOlecranon			pLeftUlnarStyloid			pLeftRadialStyloid			pLeftOlecranon			pRightTopOfHand			pRightPinky			pRightBallHand			pLeftTopOfHand			pLeftPinky			pLeftBallHand			pRightGreaterTrochanter			pRightKneeLatEpicondyle			pRightKneeMedEpicondyle			pRightPatella			pLeftGreaterTrochanter			pLeftKneeLatEpicondyle			pLeftKneeMedEpicondyle			pLeftPatella			pRightTibialTub			pRightLatMalleolus			pRightMedMalleolus			pLeftTibialTub			pLeftLatMalleolus			pLeftMedMalleolus			pRightHeelFoot			pRightFirstMetatarsal			pRightFifthMetatarsal			pRightPivotFoot			pRightHeelCenter			pRightToe			pLeftHeelFoot			pLeftFirstMetatarsal			pLeftFifthMetatarsal			pLeftPivotFoot			pLeftHeelCenter			pLeftToe			
		X1	Y1	Z1	X2	Y2	Z2	X3	Y3	Z3	X4	Y4	Z4	X5	Y5	Z5	X6	Y6	Z6	X7	Y7	Z7	X8	Y8	Z8	X9	Y9	Z9	X10	Y10	Z10	X11	Y11	Z11	X12	Y12	Z12	X13	Y13	Z13	X14	Y14	Z14	X15	Y15	Z15	X16	Y16	Z16	X17	Y17	Z17	X18	Y18	Z18	X19	Y19	Z19	X20	Y20	Z20	X21	Y21	Z21	X22	Y22	Z22	X23	Y23	Z23	X24	Y24	Z24	X25	Y25	Z25	X26	Y26	Z26	X27	Y27	Z27	X28	Y28	Z28	X29	Y29	Z29	X30	Y30	Z30	X31	Y31	Z31	X32	Y32	Z32	X33	Y33	Z33	X34	Y34	Z34	X35	Y35	Z35	X36	Y36	Z36	X37	Y37	Z37	X38	Y38	Z38	X39	Y39	Z39	X40	Y40	Z40	X41	Y41	Z41	X42	Y42	Z42	X43	Y43	Z43	X44	Y44	Z44	X45	Y45	Z45	X46	Y46	Z46	X47	Y47	Z47	X48	Y48	Z48	X49	Y49	Z49	X50	Y50	Z50	X51	Y51	Z51	X52	Y52	Z52	X53	Y53	Z53	X54	Y54	Z54	X55	Y55	Z55	X56	Y56	Z56	X57	Y57	Z57	X58	Y58	Z58	X59	Y59	Z59	X60	Y60	Z60	X61	Y61	Z61	X62	Y62	Z62	X63	Y63	Z63	X64	Y64	Z64	
700	11.65	0.0	1249.97582	7.653894434872941E-14	87.41554459539192	1316.70798	137.89386491706827	96.54535662132011	1326.88747	-126.11866303433484	66.98531232211616	1393.13489	116.7432641734463	74.46706737521988	1401.537	-100.56090407479313	-70.6976843745939	1212.00473	50.57030933186297	-67.01869496231745	1216.20579	-58.13369855908306	-55.77404908360269	1289.88585	-0.3961489385042177	9.599124485557185	1371.64487	6.156285481236027	80.0130863961061	1462.93706	8.712302018695166	145.0121439128715	1545.98871	9.677649159741728	393.47591011223255	1575.23452	-8.160649588775033	286.9684005293616	1671.69724	5.401086410851081	218.08666469324646	1620.63825	8.560202951127366	302.3098563375921	1501.71604	-4.084110377904004	327.97019200727607	1701.26621	6.057423704947827	516.9155448997466	1849.11108	-36.622486770939815	491.21584837952867	1763.47416	37.99539476001694	438.2573452273487	1778.01628	-84.90672991363488	425.794694347157	1800.15261	-3.1892486465054084	347.7160630342604	1638.41195	155.720817609115	319.9122157932742	1652.79248	-155.52408554213986	460.6186318576076	1378.26962	153.64205093588254	439.1103677538748	1369.05961	96.57307006350865	410.4355872087439	1384.24804	-195.78646032225825	406.2364156470295	1374.5533	-134.9773976528396	565.8513264804764	1150.76626	143.8619293909906	607.9957915944107	1174.03365	124.80629869094618	427.94713973876475	1365.02013	136.77373416910103	528.1581857169339	1158.68364	-179.47774897608483	572.4179934530293	1185.34418	-175.6657429676854	384.8787099492189	1369.05961	-169.35091061335916	740.3118554675361	1078.37883	224.0207726067024	651.9930917057586	1079.67146	193.78524612132085	609.2446996491819	1123.45939	146.9469104734541	677.3146479622065	1069.97672	-287.60534510720885	601.9275841299907	1077.73251	-232.9546785381138	571.0907133813809	1131.37677	-186.90394104087775	21.616665134331996	1227.51633	159.24837730615147	369.1099427017537	1037.33774	136.76027379592176	373.8798047953405	1042.34669	60.18873506442993	389.7172509154959	1078.86357	99.63280963024614	9.744671422527162	1220.89158	-158.6661283701202	256.11666854748245	910.01342	-145.3550898040911	271.8342035651955	918.25395	-70.5759731630698	295.6939683594891	942.49082	-115.09876701211516	388.7454547363587	991.12612	105.56702336646379	96.3529654384013	750.53486	156.15049938007488	99.6173888302335	741.48643	96.45542620028424	315.980715982567	884.48392	-112.63009821627787	245.02644743336668	510.42834	-144.95826781563753	251.21466389734502	508.97413	-84.71391870032674	13.130447448763213	723.228	123.86343871039378	113.30712352915415	608.66842	79.8892618352398	112.70304912451229	603.17473	154.2612894233556	126.5936483895982	589.92525	115.08359526883964	39.24477117749309	696.72902	122.15218516158937	177.6044306471362	528.84835	110.85011869503606	181.84380285496198	452.42144	-108.12010630783303	324.250644339135	392.15245	-74.47367303344097	320.84118154713894	387.46665	-148.8386409541528	341.9384902392897	381.16507	-110.88695435660219	216.74776502937146	439.81828	-108.99469732058691	414.4339553923609	348.04135	-112.06843050889772	
701	11.667	0.0	1249.97582	7.653894434872941E-14	86.00560242017899	1316.70798	138.82004700189603	98.58981828246341	1326.07957	-125.03593913794431	66.23837155703418	1393.13489	117.38205965774372	76.57555898004432	1400.89069	-100.0572358057064	-71.56411894198362	1212.48947	49.84328440592701	-66.39552523047855	1216.36737	-58.876363325798046	-55.502295895975266	1290.20901	-1.222759488046342	10.054394991297386	1371.64487	6.116447375067904	80.7557511628211	1462.6139	9.335471750534072	145.8145485365801	1545.50397	10.983729712981495	394.45755605568695	1574.74979	-4.805831376024929	287.7864449938492	1671.2125	8.196771263319466	218.8449475519755	1620.15351	10.672971786887132	303.19192308531643	1501.2313	-1.8674875806155673	328.7042830284921	1700.78147	9.204518673751599	516.0276945034365	1850.72687	-31.03968957893366	491.26274615310075	1763.9589	42.46420246239506	438.4280204620401	1779.14733	-80.33406058928364	425.4062297936905	1800.15261	1.5470298172570516	347.41583435030856	1637.60405	158.84371307996133	322.8188295955641	1652.63091	-152.4523638432326	460.65417987708827	1377.46172	155.3592878903274	439.8089171834863	1368.89803	98.00292041742313	411.3816915605938	1383.60173	-194.1488867243975	406.70733365399315	1373.58382	-133.52762503190303	565.4757116708759	1149.95836	144.8123174016519	607.8478146353341	1173.06417	125.73675677414089	428.31418203543467	1364.53539	138.3472854837251	527.2035152800296	1156.90627	-178.5913909091046	571.6909685270933	1183.24366	-174.79930840029562	385.45347548983517	1368.41329	-168.02491422097341	739.8964154075196	1077.0862	224.51587479073464	651.5975598244436	1078.37883	194.50798096056926	608.8491754283115	1122.48992	147.66965174057862	676.008568641535	1067.87619	-286.80292639517967	600.8491362319671	1075.63198	-232.17218209310676	570.1360493723527	1129.43782	-186.01759063434204	21.616665134331996	1229.45528	159.24837730615147	379.53716240573857	1059.79723	136.65083840799852	383.8517604214612	1065.12934	60.11913012223037	397.6205466150843	1102.45411	99.51481458514446	8.834122750602333	1220.08369	-158.58645858566004	235.8611929455181	894.82499	-144.84455642934722	252.38540858530672	902.25762	-70.02132445122253	277.487230417035	925.04028	-114.76747495711706	399.93953870501593	1014.07035	105.04643800521151	113.9166178098704	766.04645	156.33423300869944	117.05726374058345	757.48276	96.53529820693566	296.1605962797652	867.6797	-112.3870279424739	219.6633545564063	494.91674	-145.14777619983514	225.6040160981463	493.30095	-85.11115032847069	32.30748924102455	733.40748	124.1354005480886	139.64051259547745	625.63423	80.68201768425426	139.4917099291441	620.4637	155.01422125452243	154.29286552659926	607.86053	115.75686374342244	60.15895810290085	708.68588	122.6162316350198	209.1293827712827	550.49995	111.99149975878056	154.555742119166	438.8488	-108.02651817818783	295.2254308097482	374.21717	-74.5721759674075	291.36069751201194	369.20821	-148.8973057819512	312.3342287430435	362.58347	-111.04948080637374	189.1282112489545	425.11458	-108.75740946280047	383.67159030195154	327.19765	-112.35901041815542	
702	11.683	0.0	1249.97582	7.653894434872941E-14	84.927168610476	1316.70798	139.6025422143347	100.38672502136842	1324.94852	-124.16093848550011	65.78309339084954	1393.13489	117.42189133603574	78.56026669587351	1400.08279	-99.6574214981484	-72.43055350937334	1213.13579	49.11625947999105	-65.8762235484889	1216.52895	-59.49524297094944	-55.2305414757795	1290.53217	-2.0493559492679436	10.717396401428319	1371.48329	5.829060774537548	81.5823540519188	1462.29074	9.607218510285403	146.70089894311582	1545.18081	11.938393722009758	395.3595398751256	1574.42663	-2.3615554073236242	288.5447342804544	1670.72776	10.309532438634808	219.66728210315065	1619.66877	12.20669019065086	304.2617984704094	1500.90814	-0.12604470033715434	329.3985500318606	1700.29674	11.89634190424683	515.2038817112518	1852.0195	-26.035941586355193	491.2698199088253	1764.28206	46.47773842646466	438.76659492283	1780.11681	-76.46421792547923	425.08180284434957	1800.15261	5.704259081591854	347.51112988722724	1637.11931	161.24386728368313	325.9132431422099	1652.46933	-149.8558425775321	461.0212362620788	1376.65382	156.9328379723832	440.7151834291681	1368.73645	99.18522350954379	412.39182708869316	1382.95541	-193.09035466551998	407.0146284332251	1372.45277	-132.63699096655583	565.2238730898262	1148.98889	145.8665529459658	607.4721998257335	1171.93312	126.68714478480221	429.01273912549067	1364.21223	139.77714226551572	525.8775188876438	1155.1289	-178.01662536848838	570.6125270569459	1180.98155	-174.01681961573308	386.1122009015991	1367.76697	-167.05033560536745	739.6047463807462	1075.47041	225.1148462571844	651.202029175697	1077.0862	195.23072988813823	608.473560618711	1121.35887	148.62003975123991	674.8262655494145	1065.4525	-285.8966601494979	599.4192858780526	1073.36988	-231.47363266349524	568.9338240132099	1127.33729	-185.33895581130818	21.720526756305148	1231.5558	159.12459984503232	388.3951285422313	1081.28725	135.6464852959167	392.00688704165486	1086.45778	58.94689310493863	403.93465881971395	1124.75203	98.27426396536025	8.378844584417692	1219.59895	-158.546626907368	218.62474476455085	883.35287	-143.9100092490879	235.14896683221556	889.81603	-69.08678493140762	261.5326632913501	911.14447	-113.60101269539847	409.89585449035775	1036.36827	103.48722876378332	134.13227582186323	777.19541	155.36842023520262	137.04528266948395	769.11646	95.58940127258484	277.92965241147766	854.43021	-111.02140852186349	192.2757222853247	483.92937	-146.19237705777547	197.5334742382322	481.99042	-86.09599724109682	54.611716590819725	738.41643	123.4456246210306	169.78399804073538	638.72213	80.45329591152229	169.9866119186135	634.03634	154.8694452646176	185.71823968758397	622.40264	115.76006348002585	84.18042240714088	715.79536	121.8909076884812	244.6920562691356	569.24312	112.09148859420095	124.68400986153549	429.96195	-108.624406954998	263.05739954249293	360.48294	-75.19853900797374	258.73738807857205	355.31241	-149.4838371442254	279.58714950892886	348.04135	-111.739867362745	158.78128498599332	414.9351	-109.54310564441091	349.6625446191323	309.90869	-113.05368706121419	
703	11.7	0.0	1249.97582	7.653894434872941E-14	84.26416720034506	1316.86956	139.88992881486507	101.44096699355843	1323.97904	-123.90910756489478	65.65931592973038	1393.45805	117.31802971406259	79.80232373330824	1399.2749	-99.88077815499763	-72.80188589273084	1213.62053	48.804674614071594	-65.66850030454259	1216.69053	-59.74279789318777	-55.042734070979215	1290.69375	-2.52454995459859	11.15275230059084	1371.48329	5.561597673597637	82.26526487331964	1461.96758	9.547478653291794	147.40373203153877	1544.69608	12.106285287664045	396.1818667658563	1574.26505	-0.8278434314360257	289.22336910348827	1670.56618	11.511757797777523	220.30607758744804	1619.34561	12.953630955732848	305.0243855041465	1500.58498	0.7247564541496057	329.8694539505037	1699.812	13.346115757751752	514.4882065394074	1853.47371	-22.417936271032147	491.1573922017976	1764.60521	49.12544755242475	438.88180629889473	1781.08628	-73.83642463866511	424.86551351534877	1800.15261	8.475745668671149	347.73448654407645	1636.79616	162.48592432111786	328.3290371867108	1652.30775	-148.46153381522217	461.2886993630187	1376.16909	157.36819387154569	441.5417939787102	1368.57487	99.45697669717117	413.1145683558177	1382.30909	-192.69483044464945	407.1583217334903	1371.48329	-132.30549026149035	565.0161498458798	1148.18099	146.11410786820412	607.3882540429063	1171.12523	127.03856132901366	429.50784130952286	1363.88908	140.1925823255322	525.0907400163936	1153.67468	-177.83310038993122	569.949525646815	1179.20418	-173.72943301520272	386.4835256245122	1367.12066	-166.7387571673241	739.2931615148267	1074.50093	225.4861786405419	650.8904443097775	1076.2783	195.6020622714957	608.1619821806676	1120.55097	148.99136447415296	673.8317698620942	1063.35197	-285.4655879091468	598.4247901907323	1071.75409	-231.04256042314412	568.0431899478627	1125.55992	-185.03166103207624	22.403444005582102	1233.81791	159.06485232759425	394.58546328574175	1098.57622	134.30207305415934	397.5143109637645	1103.10043	57.662220720174915	408.12035591992867	1142.20257	96.3023995655209	7.923572846109153	1219.11421	-158.5068028895204	206.8316969898882	875.92023	-143.68108648673302	223.35591262967682	881.89866	-68.8578545086083	250.54630379920746	902.4192	-113.32796816806402	418.4465117592979	1054.14197	101.59224281892271	155.57005451594816	782.04278	153.951620614777	158.35928390244973	774.44857	94.06874003018605	265.0183250604994	844.89705	-110.46526748068621	165.962241397703	477.78936	-146.75750025157367	171.11613172863736	475.36568	-86.5373429737759	78.90492765481106	737.77011	121.8936977853943	201.33742566120625	646.80109	79.29839205396257	201.66381700020352	642.27687	153.81840302903103	218.30598701322276	631.77423	114.62935912042356	109.9831612699513	717.41115	120.55098652303428	281.20940143646123	582.81577	111.30513345096168	96.34171481399395	427.05353	-108.78264331808202	231.5722855245146	351.59609	-75.88464956597801	227.0246414053775	346.74872	-150.15003952352808	247.64675732476593	338.50819	-112.38614624245726	129.63229522805565	410.57246	-109.74545611203004	315.86122218025923	297.4671	-113.9959186265113	
